<svg width="90" height="90" viewBox="0 0 90 90" fill="none" xmlns="http://www.w3.org/2000/svg">
<path d="M50.4635 90L43.1971 72.9265C50.196 70.341 56.7491 66.8638 62.8119 62.8072L50.4635 90ZM17.0738 46.8036L0 39.5373L27.1932 27.1891C23.1365 33.2518 19.6594 39.8048 17.0738 46.8036ZM88.2665 1.73489C88.2665 1.73489 66.1999 -7.72017 40.9681 17.5156C31.2053 27.2783 25.3655 38.0217 21.5763 47.4277C20.328 50.7711 21.175 54.4265 23.6269 56.9229L33.1222 66.3735C35.5741 68.8699 39.2295 69.6723 42.573 68.4241C52.1129 64.7687 62.7227 58.7952 72.4855 49.0325C97.7172 23.8012 88.2665 1.73489 88.2665 1.73489ZM56.7491 33.2518C53.2719 29.7747 53.2719 24.1132 56.7491 20.6361C60.2263 17.159 65.8878 17.159 69.365 20.6361C72.7976 24.1132 72.8421 29.7747 69.365 33.2518C65.8878 36.7289 60.2263 36.7289 56.7491 33.2518ZM19.7485 89.153L35.9753 72.9265C34.4596 72.5253 32.9885 71.8566 31.6511 70.9205L13.4629 89.153H19.7485ZM0.847002 89.153H7.13265L28.3968 67.9337L22.0666 61.6482L0.847002 82.8675V89.153ZM0.847002 76.5373L19.0798 58.3494C18.1437 57.012 17.475 55.5855 17.0738 54.0253L0.847002 70.2518V76.5373Z" fill="#3D3D3D"/>
</svg>
