<svg width="73" height="90" viewBox="0 0 73 90" fill="none" xmlns="http://www.w3.org/2000/svg">
<path d="M36.5 0L0 16.3636V40.9091C0 63.6136 15.5733 84.8455 36.5 90C57.4267 84.8455 73 63.6136 73 40.9091V16.3636L36.5 0ZM36.5 24.5455C42.1778 24.5455 47.8556 29.0455 47.8556 34.7727V40.9091C50.2889 40.9091 52.7222 43.3636 52.7222 46.2273V60.5455C52.7222 63 50.2889 65.4545 47.45 65.4545H25.1444C22.7111 65.4545 20.2778 63 20.2778 60.1364V45.8182C20.2778 43.3636 22.7111 40.9091 25.1444 40.9091V34.7727C25.1444 29.0455 30.8222 24.5455 36.5 24.5455ZM36.5 29.4545C33.2556 29.4545 30.4167 31.5 30.4167 34.7727V40.9091H42.5833V34.7727C42.5833 31.5 39.7444 29.4545 36.5 29.4545Z" fill="#3D3D3D"/>
</svg>
